PathFileType	3	(X/Y/Z)	walking_2__view2_aligned.trc
DataRate	CameraRate	NumFrames	NumMarkers	Units	OrigDataRate	OrigDataStartFrame	OrigNumFrames
100.0	100.0	17	19	mm	100.0	4164	6310
Frame#	Time	pelvis			neck			head			hip_left			hip_right			knee_left			knee_right			ankle_left			ankle_right			heel_left			heel_right			toe_left			toe_right			shoulder_left			shoulder_right			elbow_left			elbow_right			wrist_left			wrist_right			
		X1	Y1	Z1	X2	Y2	Z2	X3	Y3	Z3	X4	Y4	Z4	X5	Y5	Z5	X6	Y6	Z6	X7	Y7	Z7	X8	Y8	Z8	X9	Y9	Z9	X10	Y10	Z10	X11	Y11	Z11	X12	Y12	Z12	X13	Y13	Z13	X14	Y14	Z14	X15	Y15	Z15	X16	Y16	Z16	X17	Y17	Z17	X18	Y18	Z18	X19	Y19	Z19	
4164	41.63000	70.651663	943.223860	138.447119	55.927869	1495.386667	197.178471	26.642589	1588.036252	341.261955	146.250512	947.076790	142.383295	-4.946853	939.370897	134.510982	155.278540	507.129745	116.369927	-79.722275	559.275166	358.758461	143.374868	102.918484	-9.352909	-117.998397	195.035428	269.283140	138.207862	56.173516	-49.200728	-116.729051	159.327578	232.185556	138.968856	31.829822	176.011293	-143.846279	108.866363	413.328937	236.159674	1439.044299	187.436199	-109.694550	1443.500388	130.642649	314.563972	1157.794258	185.524078	-160.049356	1159.622378	72.967769	319.273595	925.003809	306.280584	-211.272586	901.848227	117.747267
4165	41.64000	69.244570	943.025777	138.203561	54.834267	1494.994068	197.163241	24.777825	1587.807801	341.051636	144.754748	946.730724	142.324007	-6.265322	939.320801	134.083151	153.941926	506.448815	111.869830	-80.339509	559.863369	359.677635	142.541419	105.334564	-18.996706	-118.658551	191.037541	279.888193	137.494586	59.402256	-59.260203	-117.638016	153.844428	243.639518	137.971997	32.165673	164.046501	-143.700668	109.209383	428.052602	235.420243	1438.187974	189.317983	-110.626443	1443.439752	129.262533	312.597415	1156.711081	189.300963	-160.955598	1160.092008	69.438199	313.525471	924.758526	312.238304	-214.185197	901.554203	110.020006
4166	41.65000	67.837477	942.827693	137.960004	53.740665	1494.601470	197.148011	22.913061	1587.579350	340.841318	143.258984	946.384658	142.264719	-7.583791	939.270704	133.655321	152.605313	505.767885	107.369734	-80.956743	560.451572	360.596809	141.707970	107.750644	-28.640504	-119.318705	187.039654	290.493246	136.781310	62.630995	-69.319679	-118.546982	148.361277	255.093481	136.975139	32.501523	152.081708	-143.555057	109.552403	442.776267	234.680811	1437.331649	191.199766	-111.558336	1443.379117	127.882417	310.630858	1155.627903	193.077848	-161.861840	1160.561638	65.908629	307.777346	924.513244	318.196025	-217.097808	901.260179	102.292745
4167	41.66000	66.430385	942.629610	137.716446	52.647063	1494.208872	197.132781	21.048297	1587.350899	340.631000	141.763220	946.038592	142.205431	-8.902261	939.220608	133.227490	151.268700	505.086955	102.869637	-81.573976	561.039774	361.515984	140.874522	110.166724	-38.284302	-119.978859	183.041767	301.098299	136.068034	65.859734	-79.379154	-119.455947	142.878126	266.547444	135.978280	32.837373	140.116915	-143.409447	109.895423	457.499932	233.941380	1436.475324	193.081550	-112.490228	1443.318481	126.502301	308.664302	1154.544725	196.854733	-162.768082	1161.031268	62.379059	302.029222	924.267961	324.153745	-220.010420	900.966155	94.565485
4168	41.67000	65.023292	942.431527	137.472889	51.553461	1493.816274	197.117551	19.183532	1587.122449	340.420681	140.267455	945.692526	142.146143	-10.220730	939.170512	132.799660	149.932086	504.406025	98.369540	-82.191210	561.627977	362.435158	140.041073	112.582804	-47.928100	-120.639013	179.043880	311.703353	135.354759	69.088473	-89.438629	-120.364913	137.394976	278.001407	134.981421	33.173223	128.152123	-143.263836	110.238442	472.223598	233.201949	1435.618999	194.963333	-113.422121	1443.257846	125.122185	306.697745	1153.461548	200.631618	-163.674324	1161.500898	58.849489	296.281097	924.022679	330.111465	-222.923031	900.672131	86.838224
4169	41.68000	63.616199	942.233443	137.229331	50.459859	1493.423676	197.102321	17.318768	1586.893998	340.210363	138.771691	945.346460	142.086855	-11.539199	939.120416	132.371829	148.595473	503.725095	93.869443	-82.808444	562.216180	363.354332	139.207624	114.998884	-57.571897	-121.299167	175.045993	322.308406	134.641483	72.317212	-99.498104	-121.273878	131.911825	289.455370	133.984562	33.509073	116.187330	-143.118225	110.581462	486.947263	232.462518	1434.762674	196.845116	-114.354014	1443.197211	123.742069	304.731188	1152.378370	204.408502	-164.580566	1161.970528	55.319919	290.532973	923.777396	336.069185	-225.835642	900.378107	79.110963
4170	41.69000	62.209106	942.035360	136.985774	49.366257	1493.031078	197.087091	15.454004	1586.665547	340.000045	137.275927	945.000395	142.027567	-12.857668	939.070320	131.943999	147.258860	503.044165	89.369346	-83.425678	562.804382	364.273506	138.374176	117.414964	-67.215695	-121.959321	171.048106	332.913459	133.928207	75.545951	-109.557580	-122.182844	126.428674	300.909333	132.987703	33.844923	104.222537	-142.972614	110.924482	501.670928	231.723087	1433.906349	198.726900	-115.285906	1443.136575	122.361953	302.764632	1151.295193	208.185387	-165.486808	1162.440158	51.790349	284.784849	923.532113	342.026905	-228.748253	900.084083	71.383702
4171	41.70000	60.802014	941.837276	136.742216	48.272655	1492.638480	197.071862	13.589240	1586.437096	339.789726	135.780163	944.654329	141.968279	-14.176137	939.020224	131.516169	145.922246	502.363235	84.869250	-84.042912	563.392585	365.192680	137.540727	119.831044	-76.859493	-122.619475	167.050219	343.518512	133.214931	78.774691	-119.617055	-123.091809	120.945524	312.363295	131.990845	34.180774	92.257744	-142.827003	111.267502	516.394593	230.983656	1433.050024	200.608683	-116.217799	1443.075940	120.981837	300.798075	1150.212015	211.962272	-166.393050	1162.909788	48.260779	279.036724	923.286831	347.984626	-231.660865	899.790059	63.656441
4172	41.71000	58.898791	941.528912	136.951764	45.803947	1492.365012	197.307604	10.562578	1586.018398	339.902399	133.801904	944.283126	142.382099	-16.004323	938.774697	131.521440	144.950472	502.148633	84.924718	-84.877550	562.510766	363.860416	137.671319	124.233336	-83.668966	-122.689031	163.574963	347.669270	133.536537	84.431423	-126.997563	-123.166859	116.521169	317.006066	131.898671	35.245429	81.674717	-143.030135	110.402835	523.221662	228.746427	1432.740144	201.726255	-118.587668	1442.621086	120.699639	298.015825	1149.800017	213.796679	-168.588752	1162.608274	46.631753	274.185684	922.955988	349.835674	-234.396076	899.134685	59.756269
4173	41.72000	56.995569	941.220547	137.161311	43.335240	1492.091544	197.543346	7.535916	1585.599699	340.015072	131.823645	943.911923	142.795919	-17.832508	938.529170	131.526712	143.978698	501.934030	84.980187	-85.712188	561.628947	362.528151	137.801910	128.635628	-90.478439	-122.758586	160.099707	351.820028	133.858143	90.088156	-134.378071	-123.241908	112.096815	321.648837	131.806498	36.310083	71.091690	-143.233267	109.538168	530.048731	226.509199	1432.430264	202.843827	-120.957537	1442.166232	120.417441	295.233575	1149.388020	215.631086	-170.784453	1162.306760	45.002728	269.334643	922.625145	351.686722	-237.131287	898.479311	55.856097
4174	41.73000	55.092346	940.912182	137.370858	40.866532	1491.818076	197.779088	4.509253	1585.181001	340.127745	129.845386	943.540720	143.209740	-19.660694	938.283643	131.531983	143.006924	501.719428	85.035655	-86.546827	560.747129	361.195887	137.932502	133.037920	-97.287913	-122.828142	156.624451	355.970785	134.179749	95.744888	-141.758579	-123.316957	107.672460	326.291608	131.714325	37.374738	60.508662	-143.436399	108.673502	536.875799	224.271970	1432.120383	203.961399	-123.327406	1441.711378	120.135244	292.451324	1148.976022	217.465493	-172.980155	1162.005246	43.373702	264.483603	922.294302	353.537770	-239.866499	897.823937	51.955924
4175	41.74000	53.189124	940.603817	137.580406	38.397824	1491.544609	198.014830	1.482591	1584.762303	340.240418	127.867127	943.169517	143.623560	-21.488879	938.038116	131.537255	142.035150	501.504826	85.091124	-87.381465	559.865310	359.863623	138.063094	137.440212	-104.097386	-122.897697	153.149195	360.121543	134.501355	101.401621	-149.139087	-123.392007	103.248106	330.934379	131.622152	38.439393	49.925635	-143.639531	107.808835	543.702868	222.034741	1431.810503	205.078970	-125.697276	1441.256523	119.853046	289.669074	1148.564024	219.299900	-175.175857	1161.703732	41.744676	259.632562	921.963459	355.388818	-242.601710	897.168563	48.055752
4176	41.75000	51.285901	940.295452	137.789953	35.929117	1491.271141	198.250572	-1.544071	1584.343605	340.353091	125.888868	942.798314	144.037380	-23.317065	937.792589	131.542526	141.063376	501.290224	85.146592	-88.216103	558.983491	358.531358	138.193686	141.842504	-110.906859	-122.967253	149.673939	364.272301	134.822961	107.058353	-156.519595	-123.467056	98.823751	335.577150	131.529979	39.504048	39.342608	-143.842663	106.944168	550.529936	219.797513	1431.500622	206.196542	-128.067145	1440.801669	119.570848	286.886824	1148.152027	221.134307	-177.371558	1161.402218	40.115650	254.781522	921.632616	357.239866	-245.336921	896.513189	44.155580
4177	41.76000	49.382679	939.987087	137.999500	33.460409	1490.997673	198.486314	-4.570733	1583.924907	340.465764	123.910608	942.427111	144.451200	-25.145250	937.547062	131.547798	140.091602	501.075621	85.202060	-89.050741	558.101673	357.199094	138.324278	146.244796	-117.716332	-123.036808	146.198683	368.423059	135.144567	112.715085	-163.900103	-123.542105	94.399397	340.219921	131.437805	40.568703	28.759580	-144.045795	106.079502	557.357005	217.560284	1431.190742	207.314114	-130.437014	1440.346815	119.288650	284.104573	1147.740029	222.968714	-179.567260	1161.100704	38.486625	249.930481	921.301773	359.090914	-248.072132	895.857815	40.255408
4178	41.77000	47.479457	939.678722	138.209048	30.991701	1490.724206	198.722056	-7.597396	1583.506209	340.578437	121.932349	942.055908	144.865020	-26.973436	937.301536	131.553069	139.119828	500.861019	85.257529	-89.885380	557.219854	355.866830	138.454869	150.647088	-124.525806	-123.106364	142.723427	372.573817	135.466173	118.371818	-171.280611	-123.617154	89.975042	344.862692	131.345632	41.633358	18.176553	-144.248928	105.214835	564.184074	215.323055	1430.880861	208.431686	-132.806883	1439.891961	119.006452	281.322323	1147.328032	224.803120	-181.762962	1160.799190	36.857599	245.079441	920.970930	360.941963	-250.807344	895.202440	36.355235
4179	41.78000	45.576234	939.370357	138.418595	28.522993	1490.450738	198.957798	-10.624058	1583.087511	340.691110	119.954090	941.684705	145.278840	-28.801621	937.056009	131.558341	138.148054	500.646417	85.312997	-90.720018	556.338035	354.534565	138.585461	155.049380	-131.335279	-123.175919	139.248171	376.724575	135.787780	124.028550	-178.661119	-123.692204	85.550688	349.505463	131.253459	42.698013	7.593526	-144.452060	104.350168	571.011142	213.085827	1430.570981	209.549258	-135.176752	1439.437107	118.724254	278.540073	1146.916034	226.637527	-183.958663	1160.497677	35.228573	240.228400	920.640087	362.793011	-253.542555	894.547066	32.455063
4180	41.79000	43.673012	939.061992	138.628142	26.054286	1490.177270	199.193541	-13.650720	1582.668812	340.803783	117.975831	941.313502	145.692661	-30.629807	936.810482	131.563612	137.176280	500.431815	85.368466	-91.554656	555.456216	353.202301	138.716053	159.451672	-138.144752	-123.245475	135.772915	380.875333	136.109386	129.685283	-186.041627	-123.767253	81.126333	354.148234	131.161286	43.762668	-2.989502	-144.655192	103.485502	577.838211	210.848598	1430.261100	210.666830	-137.546621	1438.982253	118.442056	275.757823	1146.504036	228.471934	-186.154365	1160.196163	33.599548	235.377360	920.309244	364.644059	-256.277766	893.891692	28.554891
